<svg width="96" height="99" viewBox="0 0 96 99" fill="none" xmlns="http://www.w3.org/2000/svg">
<path d="M50.8226 66.3637H44.2349C38.7429 66.3637 34.292 61.9128 34.292 56.4207V49.683C34.292 47.8826 32.8326 46.4187 31.0276 46.4187H24.2899C18.7978 46.4187 14.3469 41.9678 14.3469 36.4757V29.888C14.3469 24.396 18.7978 19.945 24.2899 19.945H28.1543C29.5728 19.945 30.723 21.0953 30.723 22.5137C30.723 23.9322 29.5728 25.0825 28.1543 25.0825H24.2899C21.6348 25.0825 19.4798 27.2374 19.4798 29.8925V36.4803C19.4798 39.1354 21.6348 41.2904 24.2899 41.2904H31.0276C35.665 41.2904 39.4294 45.0502 39.4294 49.6921V56.4298C39.4294 59.0849 41.5844 61.2399 44.2395 61.2399H50.8272C53.4823 61.2399 55.6373 59.0849 55.6373 56.4298V51.447C55.6373 47.2416 54.0006 43.2862 51.0272 40.3129L40.416 29.697C36.4742 25.7508 34.3011 20.5088 34.3011 14.9304V9.94296C34.3011 4.45092 38.752 0 44.244 0H50.8317C56.3238 0 60.7747 4.45092 60.7747 9.94296V16.6807C60.7747 18.4811 62.2341 19.945 64.039 19.945H70.7768C76.2688 19.945 80.7197 24.396 80.7197 29.888V36.4757C80.7197 41.9678 76.2688 46.4187 70.7768 46.4187H66.9169C65.4984 46.4187 64.3481 45.2684 64.3481 43.85C64.3481 42.4315 65.4984 41.2813 66.9169 41.2813H70.7768C73.4319 41.2813 75.5868 39.1263 75.5868 36.4712V29.8834C75.5868 27.2283 73.4319 25.0734 70.7768 25.0734H64.0299C59.3926 25.0734 55.6327 21.3135 55.6327 16.6762V9.94296C55.6327 7.28787 53.4777 5.13288 50.8226 5.13288H44.2349C41.5798 5.13288 39.4248 7.28332 39.4248 9.94296V14.9258C39.4248 19.1312 41.0615 23.0866 44.0349 26.0599L54.6462 36.6712C58.5924 40.6129 60.7611 45.8595 60.7611 51.4379V56.4207C60.7656 61.9082 56.3147 66.3637 50.8226 66.3637Z" fill="#199A8E"/>
<path d="M18.4882 92.521L18.4626 81.7362L13.1729 90.6208H11.2984L6.03436 81.9673V92.521H2.13128V74.5463H5.57215L12.2998 85.7163L18.9248 74.5463H22.34L22.3913 92.521H18.4882ZM39.9058 85.6649C39.9058 85.7163 39.8801 86.0758 39.8288 86.7434H29.3778C29.5661 87.5994 30.0112 88.2755 30.713 88.772C31.4149 89.2684 32.288 89.5167 33.3322 89.5167C34.0512 89.5167 34.6846 89.4139 35.2324 89.2085C35.7973 88.986 36.3194 88.6436 36.7988 88.1814L38.93 90.4924C37.629 91.9818 35.7288 92.7264 33.2295 92.7264C31.6717 92.7264 30.2936 92.4268 29.0953 91.8277C27.897 91.2114 26.9726 90.364 26.3221 89.2856C25.6716 88.2071 25.3463 86.9831 25.3463 85.6136C25.3463 84.2612 25.663 83.0458 26.2964 81.9673C26.9469 80.8717 27.8285 80.0243 28.9413 79.4252C30.0711 78.8089 31.3293 78.5007 32.7159 78.5007C34.0683 78.5007 35.2923 78.7918 36.3879 79.3738C37.4835 79.9558 38.3394 80.7947 38.9557 81.8903C39.5891 82.9687 39.9058 84.227 39.9058 85.6649ZM32.7416 81.5308C31.8343 81.5308 31.0725 81.7875 30.4563 82.3011C29.84 82.8147 29.4634 83.5165 29.3264 84.4067H36.1311C35.9942 83.5337 35.6176 82.8403 35.0013 82.3268C34.385 81.7961 33.6318 81.5308 32.7416 81.5308ZM56.6443 73.4678V92.521H52.8183V90.929C51.8254 92.1273 50.3874 92.7264 48.5044 92.7264C47.2033 92.7264 46.0222 92.4354 44.9608 91.8534C43.9165 91.2713 43.0948 90.4411 42.4957 89.3626C41.8965 88.2841 41.597 87.0344 41.597 85.6136C41.597 84.1927 41.8965 82.9431 42.4957 81.8646C43.0948 80.7861 43.9165 79.9558 44.9608 79.3738C46.0222 78.7918 47.2033 78.5007 48.5044 78.5007C50.2676 78.5007 51.6457 79.0571 52.6385 80.1698V73.4678H56.6443ZM49.1977 89.4396C50.2077 89.4396 51.0465 89.0972 51.7141 88.4125C52.3818 87.7106 52.7156 86.7777 52.7156 85.6136C52.7156 84.4495 52.3818 83.5251 51.7141 82.8403C51.0465 82.1385 50.2077 81.7875 49.1977 81.7875C48.1706 81.7875 47.3232 82.1385 46.6555 82.8403C45.9879 83.5251 45.6541 84.4495 45.6541 85.6136C45.6541 86.7777 45.9879 87.7106 46.6555 88.4125C47.3232 89.0972 48.1706 89.4396 49.1977 89.4396ZM60.3518 78.7062H64.3576V92.521H60.3518V78.7062ZM62.3547 76.7803C61.6186 76.7803 61.0194 76.5663 60.5572 76.1384C60.095 75.7104 59.8639 75.1797 59.8639 74.5463C59.8639 73.9129 60.095 73.3822 60.5572 72.9543C61.0194 72.5263 61.6186 72.3123 62.3547 72.3123C63.0908 72.3123 63.69 72.5177 64.1522 72.9286C64.6144 73.3394 64.8455 73.853 64.8455 74.4693C64.8455 75.1369 64.6144 75.6933 64.1522 76.1384C63.69 76.5663 63.0908 76.7803 62.3547 76.7803ZM74.7516 92.7264C73.2794 92.7264 71.9527 92.4268 70.7715 91.8277C69.6074 91.2114 68.6916 90.364 68.024 89.2856C67.3734 88.2071 67.0482 86.9831 67.0482 85.6136C67.0482 84.2441 67.3734 83.0201 68.024 81.9416C68.6916 80.8631 69.6074 80.0243 70.7715 79.4252C71.9527 78.8089 73.2794 78.5007 74.7516 78.5007C76.2067 78.5007 77.4735 78.8089 78.552 79.4252C79.6476 80.0243 80.4436 80.8888 80.9401 82.0186L77.833 83.6877C77.114 82.4209 76.0783 81.7875 74.7259 81.7875C73.6817 81.7875 72.8172 82.1299 72.1325 82.8147C71.4477 83.4994 71.1053 84.4324 71.1053 85.6136C71.1053 86.7948 71.4477 87.7277 72.1325 88.4125C72.8172 89.0972 73.6817 89.4396 74.7259 89.4396C76.0954 89.4396 77.1311 88.8062 77.833 87.5394L80.9401 89.2342C80.4436 90.3298 79.6476 91.1857 78.552 91.802C77.4735 92.4183 76.2067 92.7264 74.7516 92.7264ZM87.8942 92.7264C86.7473 92.7264 85.626 92.5895 84.5304 92.3156C83.4348 92.0246 82.5617 91.6651 81.9112 91.2371L83.2465 88.3611C83.8627 88.7549 84.6074 89.0801 85.4805 89.3369C86.3535 89.5766 87.2095 89.6964 88.0483 89.6964C89.743 89.6964 90.5904 89.277 90.5904 88.4382C90.5904 88.0444 90.3593 87.762 89.8971 87.5908C89.4349 87.4196 88.7245 87.2741 87.7658 87.1543C86.636 86.9831 85.703 86.7862 84.9669 86.5637C84.2308 86.3411 83.5888 85.9474 83.041 85.3825C82.5104 84.8176 82.245 84.013 82.245 82.9687C82.245 82.0957 82.4932 81.3253 82.9897 80.6577C83.5033 79.973 84.2394 79.4423 85.198 79.0657C86.1738 78.689 87.3207 78.5007 88.6389 78.5007C89.6146 78.5007 90.5819 78.612 91.5405 78.8346C92.5163 79.04 93.3209 79.331 93.9542 79.7076L92.619 82.5579C91.4036 81.8731 90.0769 81.5308 88.6389 81.5308C87.7829 81.5308 87.141 81.6506 86.713 81.8903C86.285 82.1299 86.0711 82.4381 86.0711 82.8147C86.0711 83.2426 86.3022 83.5422 86.7644 83.7134C87.2266 83.8846 87.9627 84.0472 88.9727 84.2013C90.1025 84.3896 91.0269 84.595 91.7459 84.8176C92.4649 85.023 93.0898 85.4082 93.6204 85.9731C94.1511 86.538 94.4165 87.3255 94.4165 88.3355C94.4165 89.1914 94.1597 89.9532 93.6461 90.6208C93.1325 91.2884 92.3793 91.8106 91.3864 92.1872C90.4107 92.5467 89.2466 92.7264 87.8942 92.7264Z" fill="#199A8E"/>
</svg>
