<svg width="186" height="193" viewBox="0 0 186 193" fill="none" xmlns="http://www.w3.org/2000/svg">
<path d="M99.1875 129.518H86.3306C75.6121 129.518 66.9255 120.832 66.9255 110.113V96.9633C66.9255 93.4497 64.0773 90.5926 60.5548 90.5926H47.4051C36.6866 90.5926 28 81.906 28 71.1875V58.3306C28 47.6121 36.6866 38.9255 47.4051 38.9255H54.9471C57.7154 38.9255 59.9603 41.1704 59.9603 43.9387C59.9603 46.7071 57.7154 48.9519 54.9471 48.9519H47.4051C42.2233 48.9519 38.0175 53.1577 38.0175 58.3395V71.1964C38.0175 76.3782 42.2233 80.5839 47.4051 80.5839H60.5548C69.6051 80.5839 76.9519 87.9218 76.9519 96.9811V110.131C76.9519 115.313 81.1577 119.518 86.3395 119.518H99.1963C104.378 119.518 108.584 115.313 108.584 110.131V100.406C108.584 92.1986 105.39 84.4791 99.5868 78.6762L78.8774 57.958C71.1846 50.2563 66.9433 40.0258 66.9433 29.1387V19.4051C66.9433 8.6866 75.6299 0 86.3484 0H99.2052C109.924 0 118.61 8.6866 118.61 19.4051V32.5548C118.61 36.0684 121.459 38.9255 124.981 38.9255H138.131C148.849 38.9255 157.536 47.6121 157.536 58.3306V71.1875C157.536 81.906 148.849 90.5926 138.131 90.5926H130.598C127.829 90.5926 125.584 88.3477 125.584 85.5794C125.584 82.811 127.829 80.5662 130.598 80.5662H138.131C143.313 80.5662 147.518 76.3604 147.518 71.1786V58.3217C147.518 53.1399 143.313 48.9342 138.131 48.9342H124.963C115.913 48.9342 108.575 41.5963 108.575 32.5459V19.4051C108.575 14.2233 104.369 10.0175 99.1875 10.0175H86.3306C81.1488 10.0175 76.9431 14.2144 76.9431 19.4051V29.1298C76.9431 37.3373 80.1373 45.0567 85.9402 50.8596L106.65 71.569C114.351 79.2618 118.584 89.5012 118.584 100.388V110.113C118.593 120.823 109.906 129.518 99.1875 129.518Z" fill="white"/>
<path d="M36.0824 179.777L36.0323 158.729L25.7087 176.068H22.0504L11.7769 159.18V179.777H4.1595V144.697H10.8748L24.0048 166.497L36.9344 144.697H43.5996L43.6998 179.777H36.0824ZM77.8818 166.396C77.8818 166.497 77.8317 167.198 77.7314 168.501H57.3349C57.7024 170.172 58.571 171.491 59.9408 172.46C61.3106 173.429 63.0145 173.913 65.0525 173.913C66.4557 173.913 67.6919 173.713 68.761 173.312C69.8635 172.878 70.8825 172.21 71.8179 171.308L75.9774 175.818C73.4383 178.724 69.7298 180.178 64.852 180.178C61.8118 180.178 59.1223 179.593 56.7836 178.424C54.4449 177.221 52.6408 175.567 51.3712 173.462C50.1017 171.358 49.4669 168.969 49.4669 166.296C49.4669 163.657 50.085 161.285 51.3211 159.18C52.5907 157.042 54.3113 155.388 56.4829 154.218C58.688 153.016 61.1436 152.414 63.8497 152.414C66.4891 152.414 68.8779 152.982 71.0161 154.118C73.1543 155.254 74.8248 156.891 76.0276 159.029C77.2637 161.134 77.8818 163.59 77.8818 166.396ZM63.8999 158.328C62.1291 158.328 60.6424 158.829 59.4397 159.831C58.2369 160.834 57.5019 162.203 57.2346 163.941H70.515C70.2477 162.237 69.5127 160.884 68.3099 159.881C67.1072 158.846 65.6372 158.328 63.8999 158.328ZM110.549 142.592V179.777H103.082V176.67C101.145 179.008 98.3382 180.178 94.6631 180.178C92.124 180.178 89.8187 179.61 87.7473 178.474C85.7093 177.338 84.1056 175.718 82.9363 173.613C81.767 171.508 81.1823 169.069 81.1823 166.296C81.1823 163.523 81.767 161.084 82.9363 158.979C84.1056 156.875 85.7093 155.254 87.7473 154.118C89.8187 152.982 92.124 152.414 94.6631 152.414C98.1043 152.414 100.794 153.5 102.732 155.672V142.592H110.549ZM96.0162 173.763C97.9874 173.763 99.6244 173.095 100.927 171.759C102.23 170.389 102.882 168.568 102.882 166.296C102.882 164.024 102.23 162.22 100.927 160.884C99.6244 159.514 97.9874 158.829 96.0162 158.829C94.0116 158.829 92.3578 159.514 91.0549 160.884C89.7519 162.22 89.1004 164.024 89.1004 166.296C89.1004 168.568 89.7519 170.389 91.0549 171.759C92.3578 173.095 94.0116 173.763 96.0162 173.763ZM117.785 152.815H125.603V179.777H117.785V152.815ZM121.694 149.057C120.257 149.057 119.088 148.639 118.186 147.804C117.284 146.969 116.833 145.933 116.833 144.697C116.833 143.461 117.284 142.425 118.186 141.59C119.088 140.754 120.257 140.337 121.694 140.337C123.131 140.337 124.3 140.738 125.202 141.54C126.104 142.341 126.555 143.344 126.555 144.546C126.555 145.849 126.104 146.935 125.202 147.804C124.3 148.639 123.131 149.057 121.694 149.057ZM145.888 180.178C143.015 180.178 140.426 179.593 138.121 178.424C135.849 177.221 134.061 175.567 132.758 173.462C131.489 171.358 130.854 168.969 130.854 166.296C130.854 163.623 131.489 161.235 132.758 159.13C134.061 157.025 135.849 155.388 138.121 154.218C140.426 153.016 143.015 152.414 145.888 152.414C148.728 152.414 151.2 153.016 153.305 154.218C155.443 155.388 156.997 157.075 157.966 159.28L151.902 162.537C150.499 160.065 148.478 158.829 145.838 158.829C143.8 158.829 142.113 159.497 140.777 160.834C139.44 162.17 138.772 163.991 138.772 166.296C138.772 168.601 139.44 170.422 140.777 171.759C142.113 173.095 143.8 173.763 145.838 173.763C148.511 173.763 150.532 172.527 151.902 170.055L157.966 173.362C156.997 175.5 155.443 177.171 153.305 178.374C151.2 179.576 148.728 180.178 145.888 180.178ZM171.538 180.178C169.299 180.178 167.111 179.91 164.973 179.376C162.835 178.808 161.131 178.106 159.861 177.271L162.467 171.658C163.67 172.427 165.123 173.062 166.827 173.563C168.531 174.03 170.202 174.264 171.839 174.264C175.146 174.264 176.8 173.446 176.8 171.809C176.8 171.04 176.349 170.489 175.447 170.155C174.545 169.821 173.158 169.537 171.287 169.303C169.082 168.969 167.261 168.585 165.825 168.15C164.388 167.716 163.135 166.948 162.066 165.845C161.031 164.743 160.513 163.172 160.513 161.134C160.513 159.43 160.997 157.927 161.966 156.624C162.968 155.288 164.405 154.252 166.276 153.517C168.18 152.782 170.419 152.414 172.991 152.414C174.896 152.414 176.783 152.632 178.654 153.066C180.558 153.467 182.129 154.035 183.365 154.77L180.759 160.332C178.387 158.996 175.798 158.328 172.991 158.328C171.321 158.328 170.068 158.562 169.233 159.029C168.397 159.497 167.98 160.099 167.98 160.834C167.98 161.669 168.431 162.253 169.333 162.588C170.235 162.922 171.672 163.239 173.643 163.54C175.848 163.907 177.652 164.308 179.055 164.743C180.458 165.143 181.678 165.895 182.713 166.998C183.749 168.1 184.267 169.637 184.267 171.608C184.267 173.279 183.766 174.765 182.764 176.068C181.761 177.371 180.291 178.39 178.353 179.125C176.449 179.827 174.177 180.178 171.538 180.178Z" fill="white"/>
</svg>
